<?xml version="1.0" encoding="utf-8"?>
<!-- Generator: Adobe Illustrator 22.0.0, SVG Export Plug-In . SVG Version: 6.00 Build 0)  -->
<svg version="1.1" id="Camada_4" xmlns="http://www.w3.org/2000/svg" xmlns:xlink="http://www.w3.org/1999/xlink" x="0px" y="0px"
	 viewBox="0 0 80 80" style="enable-background:new 0 0 80 80;" xml:space="preserve">
<style type="text/css">
	.st0{fill:none;stroke:#040006;stroke-width:4;stroke-linecap:round;stroke-linejoin:round;stroke-miterlimit:10;}
	.st1{fill:#040006;}
	.st2{fill:#FFFFFF;}
	.st3{fill:url(#SVGID_1_);}
</style>
<g>
	<g>
		<polygon class="st0" points="40,12 10,72 40,61.1 70,72 		"/>
		<polygon class="st1" points="40,12 10,72 40,61.1 70,72 		"/>
	</g>
	<polygon class="st1" points="8,68 8,72 40,61.1 72,72 72,68.1 40,56.1 	"/>
	<g>
		<polygon class="st0" points="40,8 10,68 40,57.1 70,68 		"/>
		<polygon class="st2" points="40,8 10,68 40,57.1 70,68 		"/>
	</g>
	<g>
		<linearGradient id="SVGID_1_" gradientUnits="userSpaceOnUse" x1="7.2704" y1="65.2682" x2="52.2704" y2="20.2682">
			<stop  offset="0.3" style="stop-color:#FFFFFF"/>
			<stop  offset="1" style="stop-color:#B4B4B4"/>
		</linearGradient>
		<polygon class="st3" points="40,8 10,68 40,57.1 		"/>
	</g>
	<g>
		<polygon class="st2" points="40,8 70,68 40,57.1 		"/>
	</g>
</g>
</svg>
