<?xml version="1.0" encoding="utf-8"?>
<!-- Generator: Adobe Illustrator 22.0.0, SVG Export Plug-In . SVG Version: 6.00 Build 0)  -->
<svg version="1.1" id="Camada_3" xmlns="http://www.w3.org/2000/svg" xmlns:xlink="http://www.w3.org/1999/xlink" x="0px" y="0px"
	 viewBox="0 0 80 80" style="enable-background:new 0 0 80 80;" xml:space="preserve">
<style type="text/css">
	.st0{fill:#040006;stroke:#000000;stroke-miterlimit:10;}
	.st1{fill:url(#XMLID_3_);stroke:#000000;stroke-miterlimit:10;}
</style>
<g id="config_avanc_1_">
	<path id="XMLID_4_" class="st0" d="M71.3,36.2l-6-0.7c-0.9-0.2-1.4-0.7-1.7-1.4c-0.5-1.4-1-2.8-1.7-4c-0.3-0.7-0.3-1.6,0.2-2.2
		l3.8-4.7c0.7-0.9,0.5-1.9-0.2-2.6l-4.1-4.2c-0.7-0.7-1.9-0.7-2.6-0.2l-4.7,3.8c-0.7,0.5-1.6,0.5-2.2,0.2c-1.2-0.7-2.6-1.2-4-1.7
		c-0.7-0.2-1.4-0.9-1.4-1.7c-0.2-1.6-0.5-4.3-0.7-6.1c-0.2-1-1-1.7-1.9-1.7h-5.9c-1,0-1.9,0.7-1.9,1.7l-0.7,6.1
		c-0.2,0.9-0.7,1.4-1.4,1.7c-1.4,0.5-2.8,1-4,1.7c-0.7,0.3-1.6,0.3-2.2-0.2l-4.7-3.8c-0.9-0.7-1.9-0.5-2.6,0.2l-4.3,4
		c-0.7,0.7-0.7,1.9-0.2,2.6l3.8,4.7c0.5,0.7,0.5,1.6,0.2,2.2c-0.7,1.2-1.2,2.6-1.7,4c-0.2,0.7-0.9,1.4-1.7,1.4l-6,0.7
		c-1,0.2-1.7,1-1.7,1.9v5.9c0,1,0.7,1.9,1.7,1.9l6.2,0.9c0.9,0.2,1.4,0.7,1.7,1.4c0.5,1.4,1,2.8,1.7,4c0.3,0.7,0.3,1.6-0.2,2.2
		l-3.8,4.7c-0.7,0.9-0.5,1.9,0.2,2.6l4.1,4.2c0.7,0.7,1.9,0.7,2.6,0.2l4.7-3.8c0.7-0.5,1.6-0.5,2.2-0.2c1.2,0.7,2.6,1.2,4,1.7
		c0.7,0.2,1.4,0.9,1.4,1.7c0.2,1.6,0.5,4.3,0.7,6.1c0.2,1,1,1.7,1.9,1.7h5.9c1,0,1.9-0.7,1.9-1.7l0.7-6.1c0.2-0.9,0.7-1.4,1.4-1.7
		c1.4-0.5,2.8-1,4-1.7c0.7-0.3,1.6-0.3,2.2,0.2l4.7,3.8c0.9,0.7,1.9,0.5,2.6-0.2l4.1-4.2c0.7-0.7,0.7-1.9,0.2-2.6L62,54.1
		c-0.5-0.7-0.5-1.6-0.2-2.2c0.7-1.2,1.2-2.6,1.7-4c0.2-0.7,0.9-1.4,1.7-1.4l6-0.7c1-0.2,1.7-1,1.7-1.9v-5.9
		C73.1,37,72.4,36.3,71.3,36.2z M41.1,53.3c-6.7,0-12.2-5.5-12.2-12.3s5.5-12.3,12.2-12.3S53.4,34.3,53.4,41S47.9,53.3,41.1,53.3z"
		/>
	<linearGradient id="XMLID_3_" gradientUnits="userSpaceOnUse" x1="16.3976" y1="16.3739" x2="61.4827" y2="61.459">
		<stop  offset="0" style="stop-color:#A0A0A0"/>
		<stop  offset="0.3" style="stop-color:#FFFFFF"/>
		<stop  offset="0.49" style="stop-color:#FFFFFF"/>
		<stop  offset="0.51" style="stop-color:#A0A0A0"/>
		<stop  offset="0.9" style="stop-color:#FFFFFF"/>
	</linearGradient>
	<path id="XMLID_2_" class="st1" d="M69.2,34.2l-6-0.7c-0.9-0.2-1.4-0.7-1.7-1.4c-0.5-1.4-1-2.8-1.7-4c-0.3-0.7-0.3-1.6,0.2-2.2
		l3.8-4.7c0.7-0.9,0.5-1.9-0.2-2.6l-4.1-4.2c-0.7-0.7-1.9-0.7-2.6-0.2l-4.7,3.8c-0.7,0.5-1.6,0.5-2.2,0.2c-1.2-0.7-2.6-1.2-4-1.7
		c-0.7-0.2-1.4-0.9-1.4-1.7c-0.2-1.6-0.5-4.3-0.7-6.1c-0.2-1-1-1.7-1.9-1.7h-5.9c-1,0-1.9,0.7-1.9,1.7l-0.7,6.1
		c-0.2,0.9-0.7,1.4-1.4,1.7c-1.4,0.5-2.8,1-4,1.7c-0.7,0.3-1.6,0.3-2.2-0.2l-4.7-3.8c-0.9-0.7-1.9-0.5-2.6,0.2l-4.3,4
		c-0.7,0.7-0.7,1.9-0.2,2.6l3.8,4.7c0.5,0.7,0.5,1.6,0.2,2.2c-0.7,1.2-1.2,2.6-1.7,4c-0.2,0.7-0.9,1.4-1.7,1.4l-6,0.7
		c-1,0.2-1.7,1-1.7,1.9v5.9c0,1,0.7,1.9,1.7,1.9l6.2,0.9c0.9,0.2,1.4,0.7,1.7,1.4c0.5,1.4,1,2.8,1.7,4c0.3,0.7,0.3,1.6-0.2,2.2
		l-3.8,4.7c-0.7,0.9-0.5,1.9,0.2,2.6l4.1,4.2c0.7,0.7,1.9,0.7,2.6,0.2l4.7-3.8c0.7-0.5,1.6-0.5,2.2-0.2c1.2,0.7,2.6,1.2,4,1.7
		c0.7,0.2,1.4,0.9,1.4,1.7c0.2,1.6,0.5,4.3,0.7,6.1c0.2,1,1,1.7,1.9,1.7H42c1,0,1.9-0.7,1.9-1.7l0.7-6.1c0.2-0.9,0.7-1.4,1.4-1.7
		c1.4-0.5,2.8-1,4-1.7c0.7-0.3,1.6-0.3,2.2,0.2l4.7,3.8c0.9,0.7,1.9,0.5,2.6-0.2l4.1-4.2c0.7-0.7,0.7-1.9,0.2-2.6l-3.8-4.7
		c-0.5-0.7-0.5-1.6-0.2-2.2c0.7-1.2,1.2-2.6,1.7-4c0.2-0.7,0.9-1.4,1.7-1.4l6-0.7c1-0.2,1.7-1,1.7-1.9v-5.9
		C70.9,35,70.2,34.3,69.2,34.2z M39,51.3c-6.7,0-12.2-5.5-12.2-12.3S32.3,26.7,39,26.7S51.3,32.3,51.3,39S45.8,51.3,39,51.3z"/>
</g>
</svg>
